<svg xmlns="http://www.w3.org/2000/svg" width="36" height="36" viewBox="0 0 36 36" fill="none">
  <path d="M6.91797 8.62491H29.0771M13.7362 8.62491V6.87775C13.7362 6.43698 13.9112 6.01426 14.2229 5.70259C14.5346 5.39092 14.9573 5.21582 15.3981 5.21582H20.5969C20.8152 5.21582 21.0313 5.25881 21.2329 5.34233C21.4346 5.42585 21.6178 5.54826 21.7721 5.70259C21.9264 5.85691 22.0488 6.04012 22.1324 6.24176C22.2159 6.44339 22.2589 6.6595 22.2589 6.87775V8.62491M26.7333 8.62491L25.4975 28.6959C25.4866 29.2463 25.2631 29.7711 24.8739 30.1604C24.4846 30.5496 23.9598 30.7731 23.4094 30.784H12.5856C12.0352 30.7731 11.5104 30.5496 11.1212 30.1604C10.7319 29.7711 10.5084 29.2463 10.4975 28.6959L9.26172 8.62491" stroke="#FF3450" stroke-width="2.4" stroke-miterlimit="10" stroke-linecap="round" stroke-linejoin="round"/>
</svg>