<svg xmlns="http://www.w3.org/2000/svg" width="36" height="36" viewBox="0 0 36 36" fill="none">
  <path d="M11.3994 29.585H6.41797V24.6035L24.6788 6.34267C24.8818 6.1396 25.1229 5.97852 25.3882 5.86862C25.6535 5.75871 25.9379 5.70215 26.2251 5.70215C26.5122 5.70215 26.7966 5.75871 27.0619 5.86862C27.3272 5.97852 27.5683 6.1396 27.7714 6.34267L29.6603 8.2331C29.8633 8.43616 30.0244 8.67723 30.1343 8.94255C30.2442 9.20786 30.3008 9.49222 30.3008 9.7794C30.3008 10.0666 30.2442 10.3509 30.1343 10.6163C30.0244 10.8816 29.8633 11.1226 29.6603 11.3257L11.3994 29.585Z" stroke="#000E3C" stroke-width="2.1" stroke-linecap="round" stroke-linejoin="round"/>
  <path d="M21.9648 9.05566L26.9463 14.0387" stroke="#000E3C" stroke-width="2.1" stroke-linecap="round" stroke-linejoin="round"/>
</svg>