<svg width="28" height="28" viewBox="0 0 28 28" fill="none" xmlns="http://www.w3.org/2000/svg">
<path d="M2.05 14C2.05 7.4002 7.4002 2.05 14 2.05C20.5998 2.05 25.95 7.4002 25.95 14C25.95 20.5998 20.5998 25.95 14 25.95C7.4002 25.95 2.05 20.5998 2.05 14ZM14 0.3C6.4337 0.3 0.3 6.4337 0.3 14C0.3 21.5663 6.4337 27.7 14 27.7C21.5663 27.7 27.7 21.5663 27.7 14C27.7 6.4337 21.5663 0.3 14 0.3Z" fill="white" stroke="white" stroke-width="0.4"/>
<path fill-rule="evenodd" clip-rule="evenodd" d="M21.5023 5.22189L10.9801 11.2969L6.6838 23.1304L17.3684 16.9617L21.5023 5.22189ZM15.0066 15.8717C16.0214 15.4016 16.463 14.1979 15.993 13.1831C15.523 12.1683 14.3193 11.7267 13.3045 12.1967C12.2896 12.6667 11.848 13.8704 12.318 14.8852C12.7881 15.9 13.9917 16.3417 15.0066 15.8717Z" fill="white"/>
</svg>
