<svg xmlns="http://www.w3.org/2000/svg" width="36" height="36" viewBox="0 0 36 36" fill="none">
  <path d="M16.1481 19.6523C16.1481 20.1828 16.3588 20.6915 16.7339 21.0666C17.1089 21.4416 17.6176 21.6523 18.1481 21.6523C18.6785 21.6523 19.1872 21.4416 19.5623 21.0666C19.9374 20.6915 20.1481 20.1828 20.1481 19.6523C20.1481 19.1219 19.9374 18.6132 19.5623 18.2381C19.1872 17.8631 18.6785 17.6523 18.1481 17.6523C17.6176 17.6523 17.1089 17.8631 16.7339 18.2381C16.3588 18.6132 16.1481 19.1219 16.1481 19.6523ZM22.2375 19.6523C22.2375 20.1828 22.4483 20.6915 22.8233 21.0666C23.1984 21.4416 23.7071 21.6523 24.2375 21.6523C24.768 21.6523 25.2767 21.4416 25.6518 21.0666C26.0268 20.6915 26.2375 20.1828 26.2375 19.6523C26.2375 19.1219 26.0268 18.6132 25.6518 18.2381C25.2767 17.8631 24.768 17.6523 24.2375 17.6523C23.7071 17.6523 23.1984 17.8631 22.8233 18.2381C22.4483 18.6132 22.2375 19.1219 22.2375 19.6523ZM10.0586 19.6523C10.0586 20.1828 10.2693 20.6915 10.6444 21.0666C11.0195 21.4416 11.5282 21.6523 12.0586 21.6523C12.589 21.6523 13.0977 21.4416 13.4728 21.0666C13.8479 20.6915 14.0586 20.1828 14.0586 19.6523C14.0586 19.1219 13.8479 18.6132 13.4728 18.2381C13.0977 17.8631 12.589 17.6523 12.0586 17.6523C11.5282 17.6523 11.0195 17.8631 10.6444 18.2381C10.2693 18.6132 10.0586 19.1219 10.0586 19.6523Z" fill="#000E3C"/>
</svg>