<svg width="7" height="26" viewBox="0 0 7 26" fill="none" xmlns="http://www.w3.org/2000/svg">
<path d="M3.89652 25.6738C3.05647 25.6738 2.33734 25.3641 1.73912 24.7446C1.14091 24.1252 0.841797 23.3805 0.841797 22.5106C0.841797 21.6407 1.14091 20.896 1.73912 20.2766C2.33734 19.6571 3.05647 19.3474 3.89652 19.3474C4.73657 19.3474 5.45571 19.6571 6.05393 20.2766C6.65214 20.896 6.95125 21.6407 6.95125 22.5106C6.95125 23.3805 6.65214 24.1252 6.05393 24.7446C5.45571 25.3641 4.73657 25.6738 3.89652 25.6738ZM3.89652 16.1842C3.05647 16.1842 2.33734 15.8745 1.73912 15.255C1.14091 14.6355 0.841797 13.8909 0.841797 13.021C0.841797 12.1511 1.14091 11.4064 1.73912 10.787C2.33734 10.1675 3.05647 9.85778 3.89652 9.85778C4.73657 9.85778 5.45571 10.1675 6.05393 10.787C6.65214 11.4064 6.95125 12.1511 6.95125 13.021C6.95125 13.8909 6.65214 14.6355 6.05393 15.255C5.45571 15.8745 4.73657 16.1842 3.89652 16.1842ZM3.89652 6.69457C3.05647 6.69457 2.33734 6.38484 1.73912 5.76538C1.14091 5.14592 0.841797 4.40125 0.841797 3.53137C0.841797 2.66149 1.14091 1.91682 1.73912 1.29736C2.33734 0.677895 3.05647 0.368164 3.89652 0.368164C4.73657 0.368164 5.45571 0.677895 6.05393 1.29736C6.65214 1.91682 6.95125 2.66149 6.95125 3.53137C6.95125 4.40125 6.65214 5.14592 6.05393 5.76538C5.45571 6.38484 4.73657 6.69457 3.89652 6.69457Z" fill="white"/>
</svg>
