

<svg width="30" height="27" viewBox="0 0 30 27" fill="none" xmlns="http://www.w3.org/2000/svg">
<path d="M16.9643 24.6771C16.4914 25.1589 15.8595 25.4468 15.1918 25.4932H15.0004C14.2628 25.4932 13.5543 25.1981 13.0364 24.6705L13.0328 24.6668L3.58588 15.1276L3.58591 15.1276L3.57829 15.12C0.452385 12.0217 0.333618 6.95896 3.3126 3.71045C6.25021 0.636169 11.0593 0.442037 14.2344 3.26039L15.0004 3.94031L15.7663 3.26039C18.9413 0.442145 23.7502 0.636154 26.6878 3.7101C29.6672 6.96529 29.5484 12.0217 26.4159 15.1267L26.4158 15.1266L26.408 15.1345L16.9676 24.6737L16.9643 24.6771Z" fill="#FF003C" stroke-width="2.30769"/>
</svg>