<svg xmlns="http://www.w3.org/2000/svg" width="32" height="12" viewBox="0 0 32 12" fill="none">
<path d="M14.0878 6C14.0878 6.53043 14.2985 7.03914 14.6736 7.41421C15.0486 7.78929 15.5573 8 16.0878 8C16.6182 8 17.1269 7.78929 17.502 7.41421C17.8771 7.03914 18.0878 6.53043 18.0878 6C18.0878 5.46957 17.8771 4.96086 17.502 4.58579C17.1269 4.21071 16.6182 4 16.0878 4C15.5573 4 15.0486 4.21071 14.6736 4.58579C14.2985 4.96086 14.0878 5.46957 14.0878 6ZM21.0349 6C21.0349 6.53043 21.2456 7.03914 21.6207 7.41421C21.9958 7.78929 22.5045 8 23.0349 8C23.5654 8 24.0741 7.78929 24.4491 7.41421C24.8242 7.03914 25.0349 6.53043 25.0349 6C25.0349 5.46957 24.8242 4.96086 24.4491 4.58579C24.0741 4.21071 23.5654 4 23.0349 4C22.5045 4 21.9958 4.21071 21.6207 4.58579C21.2456 4.96086 21.0349 5.46957 21.0349 6ZM7.14062 6C7.14062 6.53043 7.35134 7.03914 7.72641 7.41421C8.10148 7.78929 8.61019 8 9.14062 8C9.67106 8 10.1798 7.78929 10.5548 7.41421C10.9299 7.03914 11.1406 6.53043 11.1406 6C11.1406 5.46957 10.9299 4.96086 10.5548 4.58579C10.1798 4.21071 9.67106 4 9.14062 4C8.61019 4 8.10148 4.21071 7.72641 4.58579C7.35134 4.96086 7.14062 5.46957 7.14062 6Z" fill="#000E3C"/>
</svg>