<svg width="28" height="27" viewBox="0 0 28 27" fill="none" xmlns="http://www.w3.org/2000/svg">
<path fill-rule="evenodd" clip-rule="evenodd" d="M25.6546 20.4323C26.9432 18.5522 27.6467 16.3131 27.6467 14.0016C27.6467 10.9847 26.4483 8.09146 24.3151 5.95823C22.1819 3.825 19.2886 2.62657 16.2718 2.62657L16.2717 5.6599C18.4841 5.6599 20.6058 6.53875 22.1702 8.10312C23.7346 9.66749 24.6134 11.7892 24.6134 14.0016C24.6134 15.5034 24.2084 16.9635 23.4589 18.2358L25.6546 20.4323ZM21.7759 16.5522C22.143 15.7602 22.3384 14.8906 22.3384 14.001C22.3384 12.392 21.6992 10.8489 20.5615 9.71118C19.4238 8.57346 17.8807 7.93429 16.2717 7.93429V10.9676C17.0762 10.9676 17.8478 11.2872 18.4166 11.8561C18.9855 12.4249 19.3051 13.1965 19.3051 14.001C19.3051 14.0271 19.3047 14.0533 19.3041 14.0794L21.7759 16.5522ZM13.9934 8.76676V2.18178L10.2148 4.98669L13.9934 8.76676ZM0.425121 0.647461L0 1.07258L6.59851 7.67109L4.20006 9.45148H0.343853V12.314L0.34375 12.3141V15.692L0.343853 15.6921V18.5515H4.19589L13.9934 25.8243V15.066L16.2718 17.3443L16.2718 20.0676C17.0606 20.0676 17.8336 19.914 18.5507 19.6233L20.2571 21.3297C19.0448 21.9889 17.6766 22.3432 16.2717 22.3432V25.3766C18.488 25.3766 20.6376 24.7298 22.4682 23.5407L25.7833 26.8559L26.2036 26.4357L0.425121 0.647461Z" fill="white"/>
</svg>
