<svg width="16" height="22" viewBox="0 0 16 22" fill="none" xmlns="http://www.w3.org/2000/svg">
<path fill-rule="evenodd" clip-rule="evenodd" d="M0.186767 1.65081C0.0004884 2.01651 0.000488281 2.49649 0.000488281 3.45759V18.5427C0.000488281 19.5027 0.0004884 19.9827 0.186767 20.3495C0.351358 20.6719 0.613789 20.9339 0.936451 21.098C1.30215 21.2855 1.78213 21.2855 2.74324 21.2855H2.9718C3.93176 21.2855 4.41174 21.2855 4.77858 21.0992C5.10142 20.9348 5.36387 20.6723 5.52827 20.3495C5.71455 19.9838 5.71455 19.5038 5.71455 18.5427V3.45759C5.71455 2.49763 5.71455 2.01765 5.52827 1.65081C5.36387 1.32797 5.10142 1.06552 4.77858 0.901122C4.41288 0.714844 3.9329 0.714844 2.9718 0.714844H2.74324C1.78327 0.714844 1.30329 0.714844 0.936451 0.901122C0.613615 1.06552 0.351164 1.32797 0.186767 1.65081ZM10.4721 1.65081C10.2858 2.01651 10.2858 2.49649 10.2858 3.45759V18.5427C10.2858 19.5027 10.2858 19.9827 10.4732 20.3495C10.6375 20.6717 10.8995 20.9337 11.2218 21.098C11.5875 21.2855 12.0674 21.2855 13.0285 21.2855H13.2571C14.2171 21.2855 14.697 21.2855 15.0639 21.0992C15.3863 20.9346 15.6483 20.6722 15.8124 20.3495C15.9999 19.9838 15.9999 19.5038 15.9999 18.5427V3.45759C15.9999 2.49763 15.9999 2.01765 15.8136 1.65081C15.6492 1.32797 15.3867 1.06552 15.0639 0.901122C14.6982 0.714844 14.2182 0.714844 13.2571 0.714844H13.0285C12.0686 0.714844 11.5886 0.714844 11.2218 0.901122C10.8993 1.06571 10.6362 1.32814 10.4721 1.65081Z" fill="white"/>
</svg>
